# xmcd
#
# Track frame offsets:
# 150
# 14144
# 25057
# 33094
# 46277
# 58568
# 67382
# 77711
# 90622
# 104821
# 113548
# 132230
# 153545
# 163095
#
# Disc length: 2331 seconds
#
#
# Revision: 0
# Processed by: cddbd v1.5.2PL0 Copyright (c) Steve Scherf et al.
# Submitted via: FreeRIP 2.951 
#
DISCID=bb09190e
DTITLE=Various Artist - Acasa La Romani
DYEAR=2006
DGENRE=populara
TTITLE0=Gheorghe Turda - Dupa pui de morosan
TTITLE1=Gheorghe Turda - Cand s-omparti norocu
TTITLE2=Gheorghe Turda - De ce beau eu cate-un pic
TTITLE3=Sava Negrean Brudascu - Doamne ocroteste-i pe romani
TTITLE4=Sava Negrean Brudascu - Hai sa-ntindem hora mare
TTITLE5=Sava Negrean Brudascu - Bade unde-ai fost aseara
TTITLE6=Veta Biris - Mai romane romanas
TTITLE7=Veta Biris - Asa-i romanul
TTITLE8=Veta Biris - Pe Campia Libertatii
TTITLE9=Nicolae Furdui Iancu - Coborai din deal in vale
TTITLE10=Nicolae Furdui Iancu - Asa beau oamenii buni
TTITLE11=Nicolae Furdui Iancu - Cui nu-i place dragostea
TTITLE12=Daniela Condurache - La gardul cu hartapele
TTITLE13=Daniela Condurache - De flacai e satul plin
EXTD=
EXTT0=
EXTT1=
EXTT2=
EXTT3=
EXTT4=
EXTT5=
EXTT6=
EXTT7=
EXTT8=
EXTT9=
EXTT10=
EXTT11=
EXTT12=
EXTT13=
PLAYORDER=
